<svg id="Layer_1" data-name="Layer 1" xmlns="http://www.w3.org/2000/svg" xmlns:xlink="http://www.w3.org/1999/xlink" viewBox="0 0 1962.09 851.41"><defs><style>.cls-1{fill:url(#linear-gradient);}.cls-2{fill:url(#linear-gradient-2);}.cls-3{fill:url(#linear-gradient-3);}.cls-4{font-size:79.87px;fill:#02529e;font-family:Arial-BoldMT, Arial;font-weight:700;}</style><linearGradient id="linear-gradient" x1="154.55" y1="956.81" x2="154.55" y2="57.69" gradientTransform="translate(127.57 -60.55)" gradientUnits="userSpaceOnUse"><stop offset="0" stop-color="#2b3990"/><stop offset="1" stop-color="#1c75bc"/></linearGradient><linearGradient id="linear-gradient-2" x1="752.92" y1="462.57" x2="752.92" y2="-436.55" gradientTransform="translate(-14.24 353.18) scale(1 0.75)" xlink:href="#linear-gradient"/><linearGradient id="linear-gradient-3" x1="479.77" y1="265.8" x2="479.77" y2="0" gradientTransform="matrix(1, 0, 0, 1, 0, 0)" xlink:href="#linear-gradient"/></defs><rect class="cls-1" x="167.49" y="-2.86" width="229.26" height="899.12" rx="114.63" transform="translate(-185.55 200.9) rotate(-30)"/><rect class="cls-2" x="624.05" y="25.18" width="229.26" height="675.55" rx="114.63" transform="matrix(0.87, 0.5, -0.5, 0.87, 280.44, -320.71)"/><polygon class="cls-3" points="479.77 64.25 507.7 0 507.09 70.06 558.75 22.73 529.69 86.48 596.13 64.25 543.66 110.67 613.4 117.39 546.58 138.46 607.56 172.95 537.95 165.02 579.62 221.34 519.26 185.78 534.42 254.18 493.74 197.15 479.77 265.8 465.8 197.15 425.11 254.18 440.28 185.78 379.91 221.34 421.58 165.02 351.97 172.95 412.95 138.46 346.13 117.39 415.87 110.67 363.4 64.25 429.84 86.48 400.79 22.73 452.44 70.06 451.83 0 479.77 64.25"/><text class="cls-4" transform="translate(1229.77 514.96)">Covid-19 Indonesia</text></svg>