<svg id="Layer_1" data-name="Layer 1" xmlns="http://www.w3.org/2000/svg" xmlns:xlink="http://www.w3.org/1999/xlink" viewBox="0 0 1001.17 255.87"><defs><style>.cls-1{fill:url(#linear-gradient);}.cls-2{fill:url(#linear-gradient-2);}.cls-3{fill:url(#linear-gradient-3);}.cls-4{font-size:79.87px;fill:#02529e;font-family:Arial-BoldMT, Arial;font-weight:700;}</style><linearGradient id="linear-gradient" x1="24" y1="238.72" x2="24" y2="-31.49" gradientTransform="translate(60.79 30.63)" gradientUnits="userSpaceOnUse"><stop offset="0" stop-color="#2b3990"/><stop offset="1" stop-color="#1c75bc"/></linearGradient><linearGradient id="linear-gradient-2" x1="296.06" y1="239.09" x2="296.06" y2="-31.12" gradientTransform="translate(-74.07 30.95) scale(1 0.75)" xlink:href="#linear-gradient"/><linearGradient id="linear-gradient-3" x1="144.18" y1="79.88" x2="144.18" y2="0" gradientTransform="matrix(1, 0, 0, 1, 0, 0)" xlink:href="#linear-gradient"/></defs><rect class="cls-1" x="50.33" y="-0.86" width="68.9" height="270.21" rx="34.45" transform="translate(-55.76 60.38) rotate(-30)"/><rect class="cls-2" x="187.54" y="7.57" width="68.9" height="203.02" rx="34.45" transform="translate(84.28 -96.38) rotate(30)"/><polygon class="cls-3" points="144.18 19.31 152.58 0 152.4 21.05 167.92 6.83 159.19 25.99 179.15 19.31 163.38 33.26 184.34 35.28 164.26 41.61 182.59 51.98 161.67 49.59 174.19 66.52 156.05 55.83 160.61 76.39 148.38 59.25 144.18 79.88 139.99 59.25 127.76 76.39 132.31 55.83 114.17 66.52 126.7 49.59 105.78 51.98 124.1 41.61 104.02 35.28 124.98 33.26 109.21 19.31 129.18 25.99 120.45 6.83 135.97 21.05 135.79 0 144.18 19.31"/><text class="cls-4" transform="translate(268.84 176.22)">Covid-19 Indonesia</text></svg>